<?xml version="1.0" encoding="UTF-8" standalone="no"?>
<!DOCTYPE svg PUBLIC "-//W3C//DTD SVG 1.1//EN"
 "http://www.w3.org/Graphics/SVG/1.1/DTD/svg11.dtd">
<!-- Generated by graphviz version 2.40.1 (20161225.0304)
 -->
<!-- Title: dependencies Pages: 1 -->
<svg width="504pt" height="284pt"
 viewBox="0.00 0.00 504.00 284.00" xmlns="http://www.w3.org/2000/svg" xmlns:xlink="http://www.w3.org/1999/xlink">
<g id="graph0" class="graph" transform="scale(1 1) rotate(0) translate(4 280)">
<title>dependencies</title>
<polygon fill="#ffffff" stroke="transparent" points="-4,4 -4,-280 500,-280 500,4 -4,4"/>
<text text-anchor="start" x="227.0091" y="-42.4" font-family="sans-serif" font-weight="bold" font-size="14.00" fill="#000000">Legend</text>
<polygon fill="#ffffb3" stroke="transparent" points="14,-10 14,-30 34,-30 34,-10 14,-10"/>
<text text-anchor="start" x="37.629" y="-15.4" font-family="sans-serif" font-size="14.00" fill="#000000"> &#160;Declarations</text>
<polygon fill="#8dd3c7" stroke="transparent" points="127,-10 127,-30 147,-30 147,-10 127,-10"/>
<text text-anchor="start" x="150.7251" y="-15.4" font-family="sans-serif" font-size="14.00" fill="#000000"> &#160;Module</text>
<polygon fill="#80b1d3" stroke="transparent" points="213,-10 213,-30 233,-30 233,-10 213,-10"/>
<text text-anchor="start" x="236.7812" y="-15.4" font-family="sans-serif" font-size="14.00" fill="#000000"> &#160;Bootstrap</text>
<polygon fill="#fdb462" stroke="transparent" points="310,-10 310,-30 330,-30 330,-10 310,-10"/>
<text text-anchor="start" x="333.6732" y="-15.4" font-family="sans-serif" font-size="14.00" fill="#000000"> &#160;Providers</text>
<polygon fill="#fb8072" stroke="transparent" points="406,-10 406,-30 426,-30 426,-10 406,-10"/>
<text text-anchor="start" x="429.7258" y="-15.4" font-family="sans-serif" font-size="14.00" fill="#000000"> &#160;Exports</text>
<g id="clust1" class="cluster">
<title>cluster_UtilModule</title>
<polygon fill="none" stroke="#000000" stroke-dasharray="1,5" points="68,-70 68,-268 428,-268 428,-70 68,-70"/>
</g>
<g id="clust2" class="cluster">
<title>cluster_UtilModule_declarations</title>
<polygon fill="none" stroke="#000000" points="294,-78 294,-130 420,-130 420,-78 294,-78"/>
</g>
<g id="clust5" class="cluster">
<title>cluster_UtilModule_exports</title>
<polygon fill="none" stroke="#000000" points="203,-208 203,-260 333,-260 333,-208 203,-208"/>
</g>
<g id="clust7" class="cluster">
<title>cluster_UtilModule_providers</title>
<polygon fill="none" stroke="#000000" points="76,-78 76,-130 286,-130 286,-78 76,-78"/>
</g>
<!-- CustomDatePipe -->
<g id="node1" class="node">
<title>CustomDatePipe</title>
<polygon fill="#ffffb3" stroke="#000000" points="412.3767,-122 301.6233,-122 301.6233,-86 412.3767,-86 412.3767,-122"/>
<text text-anchor="middle" x="357" y="-99.8" font-family="Times,serif" font-size="14.00" fill="#000000">CustomDatePipe</text>
</g>
<!-- UtilModule -->
<g id="node2" class="node">
<title>UtilModule</title>
<polygon fill="#8dd3c7" stroke="#000000" points="308.8289,-187 305.8289,-191 284.8289,-191 281.8289,-187 227.1711,-187 227.1711,-151 308.8289,-151 308.8289,-187"/>
<text text-anchor="middle" x="268" y="-164.8" font-family="Times,serif" font-size="14.00" fill="#000000">UtilModule</text>
</g>
<!-- CustomDatePipe&#45;&gt;UtilModule -->
<g id="edge1" class="edge">
<title>CustomDatePipe&#45;&gt;UtilModule</title>
<path fill="none" stroke="#000000" d="M305.1129,-122.1061C305.1129,-122.1061 305.1129,-140.991 305.1129,-140.991"/>
<polygon fill="#000000" stroke="#000000" points="301.613,-140.9909 305.1129,-150.991 308.613,-140.991 301.613,-140.9909"/>
</g>
<!-- CustomDatePipe  -->
<g id="node3" class="node">
<title>CustomDatePipe </title>
<polygon fill="#fb8072" stroke="#000000" points="325.3772,-252 210.6228,-252 210.6228,-216 325.3772,-216 325.3772,-252"/>
<text text-anchor="middle" x="268" y="-229.8" font-family="Times,serif" font-size="14.00" fill="#000000">CustomDatePipe </text>
</g>
<!-- UtilModule&#45;&gt;CustomDatePipe  -->
<g id="edge2" class="edge">
<title>UtilModule&#45;&gt;CustomDatePipe </title>
<path fill="none" stroke="#000000" stroke-dasharray="5,2" d="M268,-187.1061C268,-187.1061 268,-205.991 268,-205.991"/>
<polygon fill="#000000" stroke="#000000" points="264.5001,-205.9909 268,-215.991 271.5001,-205.991 264.5001,-205.9909"/>
</g>
<!-- NetworkStatusService -->
<g id="node4" class="node">
<title>NetworkStatusService</title>
<ellipse fill="#fdb462" stroke="#000000" cx="181" cy="-104" rx="97.2664" ry="18"/>
<text text-anchor="middle" x="181" y="-99.8" font-family="Times,serif" font-size="14.00" fill="#000000">NetworkStatusService</text>
</g>
<!-- NetworkStatusService&#45;&gt;UtilModule -->
<g id="edge3" class="edge">
<title>NetworkStatusService&#45;&gt;UtilModule</title>
<path fill="none" stroke="#000000" d="M252.8595,-116.226C252.8595,-116.226 252.8595,-140.683 252.8595,-140.683"/>
<polygon fill="#000000" stroke="#000000" points="249.3596,-140.683 252.8595,-150.683 256.3596,-140.683 249.3596,-140.683"/>
</g>
</g>
</svg>
