<?xml version="1.0" encoding="UTF-8" standalone="no"?>
<!DOCTYPE svg PUBLIC "-//W3C//DTD SVG 1.1//EN"
 "http://www.w3.org/Graphics/SVG/1.1/DTD/svg11.dtd">
<!-- Generated by graphviz version 2.40.1 (20161225.0304)
 -->
<!-- Title: dependencies Pages: 1 -->
<svg width="1531pt" height="211pt"
 viewBox="0.00 0.00 1531.00 211.00" xmlns="http://www.w3.org/2000/svg" xmlns:xlink="http://www.w3.org/1999/xlink">
<g id="graph0" class="graph" transform="scale(1 1) rotate(0) translate(4 207)">
<title>dependencies</title>
<polygon fill="#ffffff" stroke="transparent" points="-4,4 -4,-207 1527,-207 1527,4 -4,4"/>
<text text-anchor="start" x="740.5091" y="-42.4" font-family="sans-serif" font-weight="bold" font-size="14.00" fill="#000000">Legend</text>
<polygon fill="#ffffb3" stroke="transparent" points="527.5,-10 527.5,-30 547.5,-30 547.5,-10 527.5,-10"/>
<text text-anchor="start" x="551.129" y="-15.4" font-family="sans-serif" font-size="14.00" fill="#000000"> &#160;Declarations</text>
<polygon fill="#8dd3c7" stroke="transparent" points="640.5,-10 640.5,-30 660.5,-30 660.5,-10 640.5,-10"/>
<text text-anchor="start" x="664.2251" y="-15.4" font-family="sans-serif" font-size="14.00" fill="#000000"> &#160;Module</text>
<polygon fill="#80b1d3" stroke="transparent" points="726.5,-10 726.5,-30 746.5,-30 746.5,-10 726.5,-10"/>
<text text-anchor="start" x="750.2812" y="-15.4" font-family="sans-serif" font-size="14.00" fill="#000000"> &#160;Bootstrap</text>
<polygon fill="#fdb462" stroke="transparent" points="823.5,-10 823.5,-30 843.5,-30 843.5,-10 823.5,-10"/>
<text text-anchor="start" x="847.1732" y="-15.4" font-family="sans-serif" font-size="14.00" fill="#000000"> &#160;Providers</text>
<polygon fill="#fb8072" stroke="transparent" points="919.5,-10 919.5,-30 939.5,-30 939.5,-10 919.5,-10"/>
<text text-anchor="start" x="943.2258" y="-15.4" font-family="sans-serif" font-size="14.00" fill="#000000"> &#160;Exports</text>
<g id="clust1" class="cluster">
<title>cluster_EditorModule</title>
<polygon fill="none" stroke="#000000" stroke-dasharray="1,5" points="8,-70 8,-195 1515,-195 1515,-70 8,-70"/>
</g>
<g id="clust2" class="cluster">
<title>cluster_EditorModule_declarations</title>
<polygon fill="none" stroke="#000000" points="256,-78 256,-130 1507,-130 1507,-78 256,-78"/>
</g>
<g id="clust9" class="cluster">
<title>cluster_EditorModule_imports</title>
<polygon fill="none" stroke="#000000" points="16,-78 16,-130 248,-130 248,-78 16,-78"/>
</g>
<!-- ConfirmDeleteRoleDialogComponent -->
<g id="node1" class="node">
<title>ConfirmDeleteRoleDialogComponent</title>
<polygon fill="#ffffb3" stroke="#000000" points="1498.8473,-122 1269.1527,-122 1269.1527,-86 1498.8473,-86 1498.8473,-122"/>
<text text-anchor="middle" x="1384" y="-99.8" font-family="Times,serif" font-size="14.00" fill="#000000">ConfirmDeleteRoleDialogComponent</text>
</g>
<!-- EditorModule -->
<g id="node7" class="node">
<title>EditorModule</title>
<polygon fill="#8dd3c7" stroke="#000000" points="730.0453,-187 727.0453,-191 706.0453,-191 703.0453,-187 635.9547,-187 635.9547,-151 730.0453,-151 730.0453,-187"/>
<text text-anchor="middle" x="683" y="-164.8" font-family="Times,serif" font-size="14.00" fill="#000000">EditorModule</text>
</g>
<!-- ConfirmDeleteRoleDialogComponent&#45;&gt;EditorModule -->
<g id="edge1" class="edge">
<title>ConfirmDeleteRoleDialogComponent&#45;&gt;EditorModule</title>
<path fill="none" stroke="#000000" d="M1384,-122.2921C1384,-144.2057 1384,-178 1384,-178 1384,-178 740.0831,-178 740.0831,-178"/>
<polygon fill="#000000" stroke="#000000" points="740.0831,-174.5001 730.0831,-178 740.083,-181.5001 740.0831,-174.5001"/>
</g>
<!-- ConfirmEmployeeDeleteDialogComponent -->
<g id="node2" class="node">
<title>ConfirmEmployeeDeleteDialogComponent</title>
<polygon fill="#ffffb3" stroke="#000000" points="1251.1685,-122 990.8315,-122 990.8315,-86 1251.1685,-86 1251.1685,-122"/>
<text text-anchor="middle" x="1121" y="-99.8" font-family="Times,serif" font-size="14.00" fill="#000000">ConfirmEmployeeDeleteDialogComponent</text>
</g>
<!-- ConfirmEmployeeDeleteDialogComponent&#45;&gt;EditorModule -->
<g id="edge2" class="edge">
<title>ConfirmEmployeeDeleteDialogComponent&#45;&gt;EditorModule</title>
<path fill="none" stroke="#000000" d="M1121,-122.1061C1121,-141.3391 1121,-169 1121,-169 1121,-169 740.2898,-169 740.2898,-169"/>
<polygon fill="#000000" stroke="#000000" points="740.2899,-165.5001 730.2898,-169 740.2898,-172.5001 740.2899,-165.5001"/>
</g>
<!-- EditorComponent -->
<g id="node3" class="node">
<title>EditorComponent</title>
<polygon fill="#ffffb3" stroke="#000000" points="973.3273,-122 856.6727,-122 856.6727,-86 973.3273,-86 973.3273,-122"/>
<text text-anchor="middle" x="915" y="-99.8" font-family="Times,serif" font-size="14.00" fill="#000000">EditorComponent</text>
</g>
<!-- EditorComponent&#45;&gt;EditorModule -->
<g id="edge3" class="edge">
<title>EditorComponent&#45;&gt;EditorModule</title>
<path fill="none" stroke="#000000" d="M915,-122.027C915,-138.3976 915,-160 915,-160 915,-160 740.2283,-160 740.2283,-160"/>
<polygon fill="#000000" stroke="#000000" points="740.2283,-156.5001 730.2283,-160 740.2283,-163.5001 740.2283,-156.5001"/>
</g>
<!-- EmployeeComponent -->
<g id="node4" class="node">
<title>EmployeeComponent</title>
<polygon fill="#ffffb3" stroke="#000000" points="839.0954,-122 700.9046,-122 700.9046,-86 839.0954,-86 839.0954,-122"/>
<text text-anchor="middle" x="770" y="-99.8" font-family="Times,serif" font-size="14.00" fill="#000000">EmployeeComponent</text>
</g>
<!-- EmployeeComponent&#45;&gt;EditorModule -->
<g id="edge4" class="edge">
<title>EmployeeComponent&#45;&gt;EditorModule</title>
<path fill="none" stroke="#000000" d="M715.6122,-122.1061C715.6122,-122.1061 715.6122,-140.991 715.6122,-140.991"/>
<polygon fill="#000000" stroke="#000000" points="712.1123,-140.9909 715.6122,-150.991 719.1123,-140.991 712.1123,-140.9909"/>
</g>
<!-- EmployeeEditorComponent -->
<g id="node5" class="node">
<title>EmployeeEditorComponent</title>
<polygon fill="#ffffb3" stroke="#000000" points="682.5898,-122 509.4102,-122 509.4102,-86 682.5898,-86 682.5898,-122"/>
<text text-anchor="middle" x="596" y="-99.8" font-family="Times,serif" font-size="14.00" fill="#000000">EmployeeEditorComponent</text>
</g>
<!-- EmployeeEditorComponent&#45;&gt;EditorModule -->
<g id="edge5" class="edge">
<title>EmployeeEditorComponent&#45;&gt;EditorModule</title>
<path fill="none" stroke="#000000" d="M659.1364,-122.1061C659.1364,-122.1061 659.1364,-140.991 659.1364,-140.991"/>
<polygon fill="#000000" stroke="#000000" points="655.6365,-140.9909 659.1364,-150.991 662.6365,-140.991 655.6365,-140.9909"/>
</g>
<!-- EmployeeRolestatsDialogComponent -->
<g id="node6" class="node">
<title>EmployeeRolestatsDialogComponent</title>
<polygon fill="#ffffb3" stroke="#000000" points="491.5251,-122 264.4749,-122 264.4749,-86 491.5251,-86 491.5251,-122"/>
<text text-anchor="middle" x="378" y="-99.8" font-family="Times,serif" font-size="14.00" fill="#000000">EmployeeRolestatsDialogComponent</text>
</g>
<!-- EmployeeRolestatsDialogComponent&#45;&gt;EditorModule -->
<g id="edge6" class="edge">
<title>EmployeeRolestatsDialogComponent&#45;&gt;EditorModule</title>
<path fill="none" stroke="#000000" d="M378,-122.027C378,-138.3976 378,-160 378,-160 378,-160 625.6784,-160 625.6784,-160"/>
<polygon fill="#000000" stroke="#000000" points="625.6784,-163.5001 635.6784,-160 625.6784,-156.5001 625.6784,-163.5001"/>
</g>
<!-- EmployeeModule -->
<g id="node8" class="node">
<title>EmployeeModule</title>
<polygon fill="#8dd3c7" stroke="#000000" points="240.3132,-122 237.3132,-126 216.3132,-126 213.3132,-122 123.6868,-122 123.6868,-86 240.3132,-86 240.3132,-122"/>
<text text-anchor="middle" x="182" y="-99.8" font-family="Times,serif" font-size="14.00" fill="#000000">EmployeeModule</text>
</g>
<!-- EmployeeModule&#45;&gt;EditorModule -->
<g id="edge7" class="edge">
<title>EmployeeModule&#45;&gt;EditorModule</title>
<path fill="none" stroke="#000000" d="M182,-122.1061C182,-141.3391 182,-169 182,-169 182,-169 625.8671,-169 625.8671,-169"/>
<polygon fill="#000000" stroke="#000000" points="625.8672,-172.5001 635.8671,-169 625.8671,-165.5001 625.8672,-172.5001"/>
</g>
<!-- UtilModule -->
<g id="node9" class="node">
<title>UtilModule</title>
<polygon fill="#8dd3c7" stroke="#000000" points="105.8289,-122 102.8289,-126 81.8289,-126 78.8289,-122 24.1711,-122 24.1711,-86 105.8289,-86 105.8289,-122"/>
<text text-anchor="middle" x="65" y="-99.8" font-family="Times,serif" font-size="14.00" fill="#000000">UtilModule</text>
</g>
<!-- UtilModule&#45;&gt;EditorModule -->
<g id="edge8" class="edge">
<title>UtilModule&#45;&gt;EditorModule</title>
<path fill="none" stroke="#000000" d="M65,-122.2921C65,-144.2057 65,-178 65,-178 65,-178 625.7878,-178 625.7878,-178"/>
<polygon fill="#000000" stroke="#000000" points="625.7879,-181.5001 635.7878,-178 625.7878,-174.5001 625.7879,-181.5001"/>
</g>
</g>
</svg>
