<?xml version="1.0" encoding="UTF-8" standalone="no"?>
<!DOCTYPE svg PUBLIC "-//W3C//DTD SVG 1.1//EN"
 "http://www.w3.org/Graphics/SVG/1.1/DTD/svg11.dtd">
<!-- Generated by graphviz version 2.40.1 (20161225.0304)
 -->
<!-- Title: dependencies Pages: 1 -->
<svg width="648pt" height="284pt"
 viewBox="0.00 0.00 648.00 284.00" xmlns="http://www.w3.org/2000/svg" xmlns:xlink="http://www.w3.org/1999/xlink">
<g id="graph0" class="graph" transform="scale(1 1) rotate(0) translate(4 280)">
<title>dependencies</title>
<polygon fill="#ffffff" stroke="transparent" points="-4,4 -4,-280 644,-280 644,4 -4,4"/>
<text text-anchor="start" x="299.0091" y="-42.4" font-family="sans-serif" font-weight="bold" font-size="14.00" fill="#000000">Legend</text>
<polygon fill="#ffffb3" stroke="transparent" points="86,-10 86,-30 106,-30 106,-10 86,-10"/>
<text text-anchor="start" x="109.629" y="-15.4" font-family="sans-serif" font-size="14.00" fill="#000000"> &#160;Declarations</text>
<polygon fill="#8dd3c7" stroke="transparent" points="199,-10 199,-30 219,-30 219,-10 199,-10"/>
<text text-anchor="start" x="222.7251" y="-15.4" font-family="sans-serif" font-size="14.00" fill="#000000"> &#160;Module</text>
<polygon fill="#80b1d3" stroke="transparent" points="285,-10 285,-30 305,-30 305,-10 285,-10"/>
<text text-anchor="start" x="308.7812" y="-15.4" font-family="sans-serif" font-size="14.00" fill="#000000"> &#160;Bootstrap</text>
<polygon fill="#fdb462" stroke="transparent" points="382,-10 382,-30 402,-30 402,-10 382,-10"/>
<text text-anchor="start" x="405.6732" y="-15.4" font-family="sans-serif" font-size="14.00" fill="#000000"> &#160;Providers</text>
<polygon fill="#fb8072" stroke="transparent" points="478,-10 478,-30 498,-30 498,-10 478,-10"/>
<text text-anchor="start" x="501.7258" y="-15.4" font-family="sans-serif" font-size="14.00" fill="#000000"> &#160;Exports</text>
<g id="clust1" class="cluster">
<title>cluster_AppModule</title>
<polygon fill="none" stroke="#000000" stroke-dasharray="1,5" points="8,-70 8,-268 632,-268 632,-70 8,-70"/>
</g>
<g id="clust2" class="cluster">
<title>cluster_AppModule_declarations</title>
<polygon fill="none" stroke="#000000" points="502,-78 502,-130 624,-130 624,-78 502,-78"/>
</g>
<g id="clust4" class="cluster">
<title>cluster_AppModule_imports</title>
<polygon fill="none" stroke="#000000" points="16,-78 16,-130 494,-130 494,-78 16,-78"/>
</g>
<g id="clust6" class="cluster">
<title>cluster_AppModule_bootstrap</title>
<polygon fill="none" stroke="#000000" points="261,-208 261,-260 385,-260 385,-208 261,-208"/>
</g>
<!-- AppComponent -->
<g id="node1" class="node">
<title>AppComponent</title>
<polygon fill="#ffffb3" stroke="#000000" points="615.9399,-122 510.0601,-122 510.0601,-86 615.9399,-86 615.9399,-122"/>
<text text-anchor="middle" x="563" y="-99.8" font-family="Times,serif" font-size="14.00" fill="#000000">AppComponent</text>
</g>
<!-- AppModule -->
<g id="node2" class="node">
<title>AppModule</title>
<polygon fill="#8dd3c7" stroke="#000000" points="364.6571,-187 361.6571,-191 340.6571,-191 337.6571,-187 281.3429,-187 281.3429,-151 364.6571,-151 364.6571,-187"/>
<text text-anchor="middle" x="323" y="-164.8" font-family="Times,serif" font-size="14.00" fill="#000000">AppModule</text>
</g>
<!-- AppComponent&#45;&gt;AppModule -->
<g id="edge1" class="edge">
<title>AppComponent&#45;&gt;AppModule</title>
<path fill="none" stroke="#000000" d="M563,-122.2843C563,-143.3211 563,-175 563,-175 563,-175 374.8048,-175 374.8048,-175"/>
<polygon fill="#000000" stroke="#000000" points="374.8048,-171.5001 364.8048,-175 374.8048,-178.5001 374.8048,-171.5001"/>
</g>
<!-- AppComponent  -->
<g id="node7" class="node">
<title>AppComponent </title>
<polygon fill="#80b1d3" stroke="#000000" points="377.439,-252 268.561,-252 268.561,-216 377.439,-216 377.439,-252"/>
<text text-anchor="middle" x="323" y="-229.8" font-family="Times,serif" font-size="14.00" fill="#000000">AppComponent </text>
</g>
<!-- AppModule&#45;&gt;AppComponent  -->
<g id="edge6" class="edge">
<title>AppModule&#45;&gt;AppComponent </title>
<path fill="none" stroke="#000000" stroke-dasharray="1,5" d="M323,-187.1061C323,-187.1061 323,-205.991 323,-205.991"/>
<polygon fill="#000000" stroke="#000000" points="319.5001,-205.9909 323,-215.991 326.5001,-205.991 319.5001,-205.9909"/>
</g>
<!-- ApiModule -->
<g id="node3" class="node">
<title>ApiModule</title>
<polygon fill="#8dd3c7" stroke="#000000" points="486.0483,-122 483.0483,-126 462.0483,-126 459.0483,-122 405.9517,-122 405.9517,-86 486.0483,-86 486.0483,-122"/>
<text text-anchor="middle" x="446" y="-99.8" font-family="Times,serif" font-size="14.00" fill="#000000">ApiModule</text>
</g>
<!-- ApiModule&#45;&gt;AppModule -->
<g id="edge2" class="edge">
<title>ApiModule&#45;&gt;AppModule</title>
<path fill="none" stroke="#000000" d="M446,-122.0225C446,-139.3734 446,-163 446,-163 446,-163 374.9856,-163 374.9856,-163"/>
<polygon fill="#000000" stroke="#000000" points="374.9856,-159.5001 364.9856,-163 374.9856,-166.5001 374.9856,-159.5001"/>
</g>
<!-- AppRoutingModule -->
<g id="node4" class="node">
<title>AppRoutingModule</title>
<polygon fill="#8dd3c7" stroke="#000000" points="387.2744,-122 384.2744,-126 363.2744,-126 360.2744,-122 258.7256,-122 258.7256,-86 387.2744,-86 387.2744,-122"/>
<text text-anchor="middle" x="323" y="-99.8" font-family="Times,serif" font-size="14.00" fill="#000000">AppRoutingModule</text>
</g>
<!-- AppRoutingModule&#45;&gt;AppModule -->
<g id="edge3" class="edge">
<title>AppRoutingModule&#45;&gt;AppModule</title>
<path fill="none" stroke="#000000" d="M323,-122.1061C323,-122.1061 323,-140.991 323,-140.991"/>
<polygon fill="#000000" stroke="#000000" points="319.5001,-140.9909 323,-150.991 326.5001,-140.991 319.5001,-140.9909"/>
</g>
<!-- EmployeeModule -->
<g id="node5" class="node">
<title>EmployeeModule</title>
<polygon fill="#8dd3c7" stroke="#000000" points="240.3132,-122 237.3132,-126 216.3132,-126 213.3132,-122 123.6868,-122 123.6868,-86 240.3132,-86 240.3132,-122"/>
<text text-anchor="middle" x="182" y="-99.8" font-family="Times,serif" font-size="14.00" fill="#000000">EmployeeModule</text>
</g>
<!-- EmployeeModule&#45;&gt;AppModule -->
<g id="edge4" class="edge">
<title>EmployeeModule&#45;&gt;AppModule</title>
<path fill="none" stroke="#000000" d="M182,-122.0225C182,-139.3734 182,-163 182,-163 182,-163 271.0771,-163 271.0771,-163"/>
<polygon fill="#000000" stroke="#000000" points="271.0771,-166.5001 281.0771,-163 271.0771,-159.5001 271.0771,-166.5001"/>
</g>
<!-- UtilModule -->
<g id="node6" class="node">
<title>UtilModule</title>
<polygon fill="#8dd3c7" stroke="#000000" points="105.8289,-122 102.8289,-126 81.8289,-126 78.8289,-122 24.1711,-122 24.1711,-86 105.8289,-86 105.8289,-122"/>
<text text-anchor="middle" x="65" y="-99.8" font-family="Times,serif" font-size="14.00" fill="#000000">UtilModule</text>
</g>
<!-- UtilModule&#45;&gt;AppModule -->
<g id="edge5" class="edge">
<title>UtilModule&#45;&gt;AppModule</title>
<path fill="none" stroke="#000000" d="M65,-122.2843C65,-143.3211 65,-175 65,-175 65,-175 271.2611,-175 271.2611,-175"/>
<polygon fill="#000000" stroke="#000000" points="271.2611,-178.5001 281.2611,-175 271.2611,-171.5001 271.2611,-178.5001"/>
</g>
</g>
</svg>
